# xmcd
# 
# Track frame offsets:
#     182
#     24040
#     43062
#     60047
#     81087
# 
# Disc length: 1375
# 
# Revision: 1
# Processed by: cddbd v1.5.2PL0 Copyright (c) Steve Scherf et al.
# Submitted via: BonkEnc v1.0.6
# 
DISCID=29055d05
DTITLE=The Clan (Brian Robertson) - Thats All ..!
DYEAR=1995
DGENRE=Blues
TTITLE0=That's All
TTITLE1=Do It 'Till We Drop (drop it)
TTITLE2=Try It Again
TTITLE3=Blues Boy
TTITLE4=Don't Talk To Me
EXTD=YEAR: 1995
EXTT0=
EXTT1=
EXTT2=
EXTT3=
EXTT4=
PLAYORDER=
